# xmcd
#
# Track frame offsets:
#	150
#	14827
#	28706
#	43150
#	69364
#	90326
#	108331
#	133648
#	149957
#	173675
#	190973
#	216647
#	240359
#	261376
#	282671
#	301174
#	318356
#
# Disc length: 4471 seconds
#
# Revision: 0
# Processed by: cddbd v1.4PL0 Copyright (c) Steve Scherf et al.
# Submitted via: audiograbber 1.81.02
#
DISCID=05117511
DTITLE=Dead Or Alive - The Hits
DYEAR=2002
DGENRE=
TTITLE0=You Spin Me Round
TTITLE1=That`s The Way
TTITLE2=In Too Deep
TTITLE3=What I What
TTITLE4=Misty Circles
TTITLE5=I`d Do Anything
TTITLE6=Lover Come Back
TTITLE7=I`ll Save You All My Kisses
TTITLE8=Hooked On Love
TTITLE9=Come Home
TTITLE10=Sex Drive
TTITLE11=Turn Around and Count 2 Ten
TTITLE12=Hit and Run Lover
TTITLE13=Isn`t It A Pity
TTITLE14=Brand New Lover
TTITLE15=Something In My House
TTITLE16=You Spin Me Round
EXTD=
EXTT0=
EXTT1=
EXTT2=
EXTT3=
EXTT4=
EXTT5=
EXTT6=
EXTT7=
EXTT8=
EXTT9=
EXTT10=
EXTT11=
EXTT12=
EXTT13=
EXTT14=
EXTT15=
EXTT16=
PLAYORDER=
